<svg xmlns="http://www.w3.org/2000/svg" viewBox="0 0 220 220" width="220" height="220">
  <defs>
    <linearGradient id="mizanTeal" x1="0" y1="0" x2="0" y2="1">
      <stop offset="0%" stop-color="#2FBFB2"/>
      <stop offset="100%" stop-color="#127A73"/>
    </linearGradient>
  </defs>

  <!-- عمود الميزان -->
  <rect x="106" y="40" width="8" height="118" rx="4" fill="#0E2B3D"/>

  <!-- ذراع الميزان -->
  <rect x="40" y="52" width="140" height="6" rx="3" fill="#0E2B3D"/>

  <!-- نقطة الارتكاز -->
  <circle cx="110" cy="55" r="9" fill="url(#mizanTeal)"/>

  <!-- الكفة اليسرى -->
  <path d="M40 58 L20 96 A22 22 0 0 0 60 96 Z" fill="none" stroke="#0E2B3D" stroke-width="6" stroke-linejoin="round"/>
  <!-- الكفة اليمنى -->
  <path d="M180 58 L160 96 A22 22 0 0 0 200 96 Z" fill="none" stroke="#0E2B3D" stroke-width="6" stroke-linejoin="round"/>

  <!-- خط سلوك/نبض تحليلي داخل الكفة اليمنى: يرمز لتحليل سلوك المزايد (الجزء الذي تضيفه ميزان فوق التحقق من الهوية) -->
  <polyline points="163,96 172,80 178,104 184,88 190,96" fill="none" stroke="url(#mizanTeal)" stroke-width="4" stroke-linecap="round" stroke-linejoin="round"/>

  <!-- علامة تحقق داخل الكفة اليسرى: ترمز للهوية الموثقة (إنفاذ / أبشر) -->
  <path d="M32 96 L38 102 L50 88" fill="none" stroke="#0E2B3D" stroke-width="5" stroke-linecap="round" stroke-linejoin="round" opacity="0.55"/>

  <!-- القاعدة -->
  <path d="M78 158 L142 158 L152 174 L68 174 Z" fill="#0E2B3D"/>
  <rect x="60" y="174" width="100" height="9" rx="4" fill="url(#mizanTeal)"/>
</svg>
